<svg width="47" height="39" viewBox="0 0 47 39" fill="none" xmlns="http://www.w3.org/2000/svg">
<rect width="47" height="39" rx="5" fill="#4E4E4E"/>
<path d="M26.3971 15.98L23.8171 25.3H21.9571L19.5371 16.24C19.5504 17.8667 19.5771 19.5067 19.6171 21.16C19.6704 22.8133 19.7104 24.4267 19.7371 26H16.5771C16.6038 24.6267 16.6238 23.2667 16.6371 21.92C16.6504 20.56 16.6571 19.1933 16.6571 17.82C16.6571 16.4467 16.6504 15.0867 16.6371 13.74C16.6238 12.38 16.6038 11.0133 16.5771 9.64H20.8571L22.9771 19.02L25.3571 9.64H29.3971C29.3571 12.36 29.3371 15.0867 29.3371 17.82C29.3371 20.5533 29.3571 23.28 29.3971 26H26.1971L26.3971 15.98Z" fill="white"/>
</svg>
